<?xml version="1.0" encoding="UTF-8"?>
<svg width="400" height="400" version="1.1" viewBox="0 0 105.83333 105.83333" xmlns="http://www.w3.org/2000/svg">
 <g transform="translate(0 -191.17)">
  <path d="m53.237 296.94c0 0.0194 0.04926 0.0582 0.04926 0.0582s43.07-52.169 43.07-69.313c0-25.231-21.83-36.208-43.119-36.247-21.289 0.0388-43.119 11.016-43.119 36.247 0 17.144 43.095 69.313 43.095 69.313l0.02468-0.0582z" fill="#e4cf99" fill-opacity=".98431" stroke-width=".21835"/>
  <g fill="#222">
   <path d="m73.775 219.48c-10.395-4.1943-16.531 5.6804-24.084 7.415-8.0832 2.9708-22.766-6.0144-27.262 1.3471-6.7583 11.065-5.6553 26.581-6.3472 37.739-11.381-31.927-12.844-74.809 37.036-74.809 46.938 0 54.338 40.498 39.493 73.702-4.0183-16.774-5.0696-42.516-18.836-45.393"/>
   <path d="m79.532 270.66c-2.6096 1.8546-8.2939 3.4923-13.741-2.0939-5.4438-5.5868-8.4051-10.569-8.0656-14.141 0.34532-3.5725 2.0604-4.8815 3.8127-5.2759 5.2936-1.1929 17.166-0.0502 22.059 5.9356 4.8955 5.9812-0.60385 13.109-4.0657 15.575zm-24.844-21.133c-0.02401-4e-3 -0.08075-0.0142-0.10768-0.019-0.70861-0.10321-2.6054-0.30475-2.6054-0.30475-0.20066-0.8656-0.56311-1.5738-1.0062-2.148-0.45535-0.58769-0.9951-1.0358-1.5232-1.3763-0.3279-0.2098-0.68582-0.41465-1.0629-0.61822-0.02634-0.0148-0.06181-0.0393-0.08422-0.0526 0 0 5.2244 0.68122 6.9583 0.98695 1.7283 0.30474 6.8734 1.4519 6.8734 1.4519-0.02522 3e-3 -0.0681 0.0132-0.09843 0.0204-0.42098 0.0624-0.83039 0.13235-1.2088 0.21765-0.61272 0.13938-1.2732 0.37584-1.905 0.77185-0.61136 0.38831-1.1943 0.9298-1.6774 1.6748 0 0-1.8519-0.4557-2.5525-0.60472zm-4.6384 3.544c-0.90159 3.4733-5.3853 7.1425-12.417 10.53-7.026 3.3868-11.809-0.0966-13.625-2.7315-2.4109-3.5022-5.1408-12.081 1.5066-16.027 6.6454-3.9513 18.193-0.9644 22.76 1.9674 1.5103 0.96962 2.6757 2.7865 1.7755 6.2612zm37.12 5.631c-0.27482-1.479-0.93297-2.969-2.1168-4.4162-1.3836-1.6883-3.349-3.1313-5.7679-4.27-2.129-1.0034-4.6033-1.77-7.345-2.2534l-32.971-5.8137c-2.7403-0.48319-5.3276-0.60901-7.6699-0.39412-2.6625 0.24268-5.0057 0.92595-6.879 2.04-1.6089 0.9547-2.7383 2.1296-3.5024 3.4253-2.8835 4.8896-0.51451 11.509 1.6164 14.604 0.13915 0.20393 0.37181 0.51516 0.69122 0.88046 1.1029 1.2608 3.2799 3.192 6.6798 3.7915 2.695 0.47519 5.5408 4e-3 8.4611-1.403 2.4069-1.1606 4.5131-2.3454 6.3056-3.539 4.0106-2.6738 6.4428-5.4012 7.1252-8.0377 0.08738-0.33135 0.15155-0.64772 0.2061-0.95709 0.287-0.74319 0.42315-1.1826 0.42315-1.1826s1.3535-0.1106 1.8636-0.0242l3.47e-4 -2e-3 0.10074 0.0178-3.47e-4 2e-3c0.50103 0.0883 1.7529 0.66189 1.7529 0.66189s-0.02399 0.45918-0.0083 1.2557c-0.05455 0.30937-0.1047 0.62834-0.13774 0.96914-0.26044 2.7109 1.0964 6.1064 3.9492 9.9904 1.2776 1.7349 2.8501 3.5683 4.7164 5.4824 2.2617 2.3204 4.7732 3.7366 7.4696 4.212 3.3985 0.59924 6.1089-0.47013 7.5722-1.2784 0.42519-0.23405 0.75014-0.44673 0.95212-0.5907 3.0595-2.1797 7.5525-7.5893 6.5124-13.171"/>
   <path d="m81.628 282.35s-2.0166 1.2051-4.8011 0.76687c-3.619-0.5695-7.0845-3.93-8.2312-5.5011-2.0288-2.7797-5.0729-6.1602-9.0648-6.5958-3.9929-0.43734-6.2934 3.6518-6.2934 3.6518s-2.3005-4.0891-6.2904-3.6518c-3.9929 0.4356-7.037 3.8161-9.0678 6.5958-1.1447 1.5711-4.6102 4.9316-8.2292 5.5011-2.7855 0.4382-4.8032-0.76687-4.8032-0.76687s-0.52841 2.2563 2.9805 3.1892c6.936 1.8433 19.504 0.80947 23.7-4.8603 1.4458-1.9589 1.7105-3.6718 1.7105-3.6718s0.26463 1.7129 1.7125 3.6718c4.1959 5.6698 16.762 6.7036 23.698 4.8603 3.5109-0.93294 2.9805-3.1892 2.9805-3.1892"/>
  </g>
 </g>
</svg>
