<?xml version="1.0" encoding="UTF-8" standalone="no"?>
<svg
   xmlns:dc="http://purl.org/dc/elements/1.1/"
   xmlns:cc="http://creativecommons.org/ns#"
   xmlns:rdf="http://www.w3.org/1999/02/22-rdf-syntax-ns#"
   xmlns:svg="http://www.w3.org/2000/svg"
   xmlns="http://www.w3.org/2000/svg"
   xmlns:sodipodi="http://sodipodi.sourceforge.net/DTD/sodipodi-0.dtd"
   xmlns:inkscape="http://www.inkscape.org/namespaces/inkscape"
   width="400"
   height="400"
   version="1.1"
   viewBox="0 0 105.83333 105.83333"
   id="svg14"
   sodipodi:docname="flaneur.svg"
   inkscape:version="0.92.2 (5c3e80d, 2017-08-06)">
  <metadata
     id="metadata20">
    <rdf:RDF>
      <cc:Work
         rdf:about="">
        <dc:format>image/svg+xml</dc:format>
        <dc:type
           rdf:resource="http://purl.org/dc/dcmitype/StillImage" />
      </cc:Work>
    </rdf:RDF>
  </metadata>
  <defs
     id="defs18" />
  <sodipodi:namedview
     pagecolor="#ffffff"
     bordercolor="#666666"
     borderopacity="1"
     objecttolerance="10"
     gridtolerance="10"
     guidetolerance="10"
     inkscape:pageopacity="0"
     inkscape:pageshadow="2"
     inkscape:window-width="1366"
     inkscape:window-height="741"
     id="namedview16"
     showgrid="false"
     inkscape:zoom="0.59"
     inkscape:cx="470.33898"
     inkscape:cy="200"
     inkscape:window-x="0"
     inkscape:window-y="27"
     inkscape:window-maximized="1"
     inkscape:current-layer="svg14" />
  <g
     id="g28">
    <g
       id="g12"
       transform="translate(0 -191.17)">
      <path
         id="path2"
         stroke-width=".21835"
         fill-opacity=".98431"
         fill="#e4cf99"
         d="m53.237 296.94c0 0.0194 0.04926 0.0582 0.04926 0.0582s43.07-52.169 43.07-69.313c0-25.231-21.83-36.208-43.119-36.247-21.289 0.0388-43.119 11.016-43.119 36.247 0 17.144 43.095 69.313 43.095 69.313l0.02468-0.0582z" />
      <g
         id="g10"
         fill="#222">
        <path
           id="path4"
           d="m73.775 219.48c-10.395-4.1943-16.531 5.6804-24.084 7.415-8.0832 2.9708-22.766-6.0144-27.262 1.3471-6.7583 11.065-5.6553 26.581-6.3472 37.739-11.381-31.927-12.844-74.809 37.036-74.809 46.938 0 54.338 40.498 39.493 73.702-4.0183-16.774-5.0696-42.516-18.836-45.393" />
        <path
           id="path6"
           d="m81.428 265.89c-2.2479 2.2795-7.5615 4.8794-13.896 0.32398-6.3312-4.5566-10.113-8.9487-10.399-12.526-0.28028-3.5782 1.1815-5.1652 2.8386-5.8578 5.006-2.094 16.897-3.0303 22.755 2.0148 5.8597 5.0403 1.6816 13.014-1.2993 16.045zm-28.136-16.497h-0.10934c-0.71577 0.0214-2.6188 0.1523-2.6188 0.1523-0.34792-0.8176-0.82784-1.4521-1.3639-1.9407-0.55049-0.49969-1.1598-0.84726-1.7391-1.0909-0.35934-0.14967-0.7474-0.28926-1.1541-0.42425-0.02851-0.01-0.0677-0.028-0.09208-0.0372 0 0 5.2633-0.23634 7.0239-0.23634 1.7549 0 7.0211 0.23634 7.0211 0.23634-0.02438 7e-3 -0.06478 0.0248-0.09339 0.0372-0.40376 0.13451-0.7948 0.27453-1.1527 0.42425-0.57921 0.24366-1.1886 0.59123-1.742 1.0909-0.53464 0.48857-1.0147 1.1231-1.3611 1.9407 0 0-1.9029-0.12719-2.6187-0.1523zm-3.9525 4.2956c-0.28477 3.5771-4.0632 7.9692-10.4 12.526-6.3312 4.5554-11.646 1.9555-13.893-0.32398-2.9824-3.0303-7.1605-11.004-1.2993-16.045 5.8583-5.0452 17.749-4.1089 22.756-2.0148 1.6558 0.69262 3.1189 2.2796 2.8357 5.8578zm37.534-0.90043c-0.52747-1.4088-1.4344-2.7619-2.8515-3.9815-1.6557-1.4224-3.8419-2.5022-6.4217-3.2035-2.2709-0.6184-4.8408-0.94374-7.6247-0.94374h-33.48c-2.7826 0-5.3524 0.32537-7.6219 0.94374-2.5799 0.70133-4.7689 1.7811-6.4203 3.2035-1.4186 1.2196-2.327 2.5727-2.8544 3.9815-1.9906 5.3161 1.4919 11.424 4.1278 14.102 0.17244 0.17667 0.45562 0.44277 0.83361 0.74706 1.305 1.0501 3.7843 2.5739 7.2367 2.5739 2.7365 0 5.4573-0.95856 8.089-2.851 2.1688-1.561 4.0373-3.0934 5.5953-4.5802 3.4854-3.3296 5.407-6.4379 5.6212-9.1528 0.02851-0.34149 0.03677-0.6642 0.03677-0.97834 0.15359-0.78173 0.21137-1.2381 0.21137-1.2381s1.3137-0.34395 1.8311-0.34745v-2e-3h0.10229v2e-3c0.50876 0 1.8412 0.34745 1.8412 0.34745s0.05611 0.45637 0.20992 1.2381c0 0.31414 6e-3 0.63698 0.03264 0.97834 0.21426 2.7149 2.1401 5.8232 5.624 9.1528 1.5594 1.4867 3.4265 3.0192 5.5967 4.5802 2.6302 1.8924 5.3496 2.851 8.0875 2.851 3.4509 0 5.9345-1.5238 7.2352-2.5739 0.37809-0.30432 0.66117-0.5702 0.83508-0.74706 2.6345-2.6778 6.1199-8.7855 4.1264-14.102" />
        <path
           id="path8"
           d="m81.628 282.35s-2.0166 1.2051-4.8011 0.76687c-3.619-0.5695-7.0845-3.93-8.2312-5.5011-2.0288-2.7797-5.0729-6.1602-9.0648-6.5958-3.9929-0.43734-6.2934 3.6518-6.2934 3.6518s-2.3005-4.0891-6.2904-3.6518c-3.9929 0.4356-7.037 3.8161-9.0678 6.5958-1.1447 1.5711-4.6102 4.9316-8.2292 5.5011-2.7855 0.4382-4.8032-0.76687-4.8032-0.76687s-0.52841 2.2563 2.9805 3.1892c6.936 1.8433 19.504 0.80947 23.7-4.8603 1.4458-1.9589 1.7105-3.6718 1.7105-3.6718s0.26463 1.7129 1.7125 3.6718c4.1959 5.6698 16.762 6.7036 23.698 4.8603 3.5109-0.93294 2.9805-3.1892 2.9805-3.1892" />
      </g>
    </g>
  </g>
</svg>
